<?xml version="1.0" encoding="UTF-8"?>
<svg version="1.1" xmlns="http://www.w3.org/2000/svg" width="1024" height="1024">
<path d="M0 0 C1.46288452 -0.00101212 1.46288452 -0.00101212 2.95532227 -0.00204468 C63.71790513 0.06444469 121.99996412 15.06063265 175.26171875 44.32299805 C177.13163433 45.39457658 177.13163433 45.39457658 179.1875 45.25 C180.07888672 46.1471875 180.07888672 46.1471875 180.98828125 47.0625 C183.32210949 49.38389221 185.48729578 50.68599658 188.375 52.25 C206.10646169 62.38533793 222.04909764 75.51989139 237.0546875 89.3046875 C239.12276661 91.19095745 241.24025837 93.00243391 243.375 94.8125 C246.71389241 97.71646655 249.56763402 100.86333415 252.421875 104.23828125 C254.17293974 106.23341032 256.01673463 108.04402651 257.9375 109.875 C262.66901988 114.52334863 266.63392605 119.73525247 270.671875 124.98046875 C271.09919922 125.5326709 271.52652344 126.08487305 271.96679688 126.65380859 C273.10772538 128.14568671 274.21912755 129.66001649 275.328125 131.17578125 C275.94171875 131.86027344 276.5553125 132.54476562 277.1875 133.25 C278.1775 133.25 279.1675 133.25 280.1875 133.25 C280.1875 134.57 280.1875 135.89 280.1875 137.25 C281.50132451 139.59670572 281.50132451 139.59670572 283.3125 141.9375 C284.26189453 143.24267578 284.26189453 143.24267578 285.23046875 144.57421875 C285.87628906 145.45722656 286.52210938 146.34023438 287.1875 147.25 C288.34449154 148.90894014 289.49125449 150.57508719 290.625 152.25 C291.11871094 152.971875 291.61242187 153.69375 292.12109375 154.4375 C293.1875 156.25 293.1875 156.25 293.1875 158.25 C293.8475 158.58 294.5075 158.91 295.1875 159.25 C296.56564046 161.45912113 297.86200642 163.66411155 299.125 165.9375 C299.64610352 166.85692383 299.64610352 166.85692383 300.17773438 167.79492188 C302.29726203 171.55897947 304.28614413 175.36980353 306.1875 179.25 C306.8475 178.92 307.5075 178.59 308.1875 178.25 C308.30158203 179.67892578 308.30158203 179.67892578 308.41796875 181.13671875 C309.14113861 186.17611084 311.3371985 190.49812372 313.5 195.0625 C322.1875 213.68266063 322.1875 213.68266063 322.1875 218.25 C322.8475 218.58 323.5075 218.91 324.1875 219.25 C324.90063477 221.2265625 324.90063477 221.2265625 325.56640625 223.875 C325.95143311 225.37546875 325.95143311 225.37546875 326.34423828 226.90625 C326.62251465 228.0096875 326.90079102 229.113125 327.1875 230.25 C327.82107251 232.62514466 328.45521499 235.00013734 329.08984375 237.375 C333.56923322 254.56251874 337.17349396 271.56733273 339.1875 289.25 C339.27387222 289.95943756 339.36024445 290.66887512 339.44923401 291.39981079 C340.21146445 298.14833989 340.31741548 304.81491367 340.28515625 311.6015625 C340.2837413 312.74160736 340.28232635 313.88165222 340.28086853 315.0562439 C340.27531479 318.66252373 340.26277107 322.26873924 340.25 325.875 C340.24497902 328.33463451 340.24041716 330.79427001 340.23632812 333.25390625 C340.22536055 339.25262576 340.20866914 345.25130828 340.1875 351.25 C339.5275 351.25 338.8675 351.25 338.1875 351.25 C338.22101562 352.51972656 338.25453125 353.78945313 338.2890625 355.09765625 C338.28283817 360.41841935 337.51512516 365.46291069 336.5625 370.6875 C336.38356201 371.67903076 336.20462402 372.67056152 336.02026367 373.69213867 C327.73716649 418.45440107 311.77531801 461.39038811 286.1875 499.25 C285.69781738 499.97767578 285.20813477 500.70535156 284.70361328 501.45507812 C274.46605203 516.56332876 263.06018332 530.51945533 250.546875 543.7890625 C248.46445392 546.02706677 246.45628902 548.32966454 244.4375 550.625 C241.27493993 554.14964208 238.00412058 557.3171221 234.3828125 560.36328125 C231.75783847 562.61926427 229.26670318 564.99887561 226.75 567.375 C219.86295386 573.80351356 212.34212046 579.3949667 204.78466797 585.00415039 C203.05452322 586.30121709 203.05452322 586.30121709 201.1875 588.25 C198.17218799 590.30208734 195.06546774 592.20925401 191.96875 594.13574219 C190.10705944 595.30031945 188.25698605 596.48216604 186.40625 597.6640625 C166.13393009 610.4743562 144.83821211 621.33773875 122.1875 629.25 C121.19572754 629.59756348 120.20395508 629.94512695 119.18212891 630.30322266 C31.65030842 660.53895571 -63.2897793 653.82968191 -146.59472656 613.91699219 C-168.36253113 603.16960407 -189.22878091 589.89033501 -207.8125 574.25 C-208.33908203 573.80688477 -208.86566406 573.36376953 -209.40820312 572.90722656 C-213.57482791 569.39119651 -217.70546803 565.83541231 -221.8125 562.25 C-222.37308105 561.76080078 -222.93366211 561.27160156 -223.51123047 560.76757812 C-225.07691094 559.39428862 -226.6339743 558.01201237 -228.1875 556.625 C-229.52941406 555.43003906 -229.52941406 555.43003906 -230.8984375 554.2109375 C-232.8125 552.25 -232.8125 552.25 -232.8125 550.25 C-234.1325 549.59 -235.4525 548.93 -236.8125 548.25 C-236.8125 547.59 -236.8125 546.93 -236.8125 546.25 C-237.4725 546.25 -238.1325 546.25 -238.8125 546.25 C-240.1875 544.88671875 -240.1875 544.88671875 -241.8125 542.9375 C-244.67117103 539.56391308 -247.61171409 536.29881652 -250.625 533.0625 C-255.33921028 527.90791173 -259.58830734 522.48463337 -263.78125 516.90234375 C-265.70540429 514.26945595 -265.70540429 514.26945595 -267.8125 512.25 C-268.89894063 510.59883957 -269.95759035 508.92930526 -271 507.25 C-273.27684914 503.62390693 -275.61196995 500.09083765 -278.125 496.625 C-285.44380723 486.25124421 -291.49817893 475.0144027 -297.4375 463.8125 C-298.09455933 462.57802124 -298.09455933 462.57802124 -298.76489258 461.31860352 C-299.16474365 460.55475342 -299.56459473 459.79090332 -299.9765625 459.00390625 C-300.50950928 457.98792358 -300.50950928 457.98792358 -301.05322266 456.95141602 C-301.8125 455.25 -301.8125 455.25 -301.8125 453.25 C-302.8025 453.25 -303.7925 453.25 -304.8125 453.25 C-304.4825 452.26 -304.1525 451.27 -303.8125 450.25 C-304.76745674 448.55712215 -305.7715934 446.89142963 -306.8125 445.25 C-307.17412029 443.92405895 -307.50978039 442.59061543 -307.8125 441.25 C-308.163125 440.569375 -308.51375 439.88875 -308.875 439.1875 C-309.8125 437.25 -309.8125 437.25 -309.8125 434.25 C-310.8025 434.25 -311.7925 434.25 -312.8125 434.25 C-313.40982819 431.48735711 -313.8125 429.08967231 -313.8125 426.25 C-314.29401982 424.52510734 -314.82639099 422.81420712 -315.38671875 421.11328125 C-323.1583662 397.02583901 -328.32038002 372.71918864 -330.54003906 347.48974609 C-330.74606004 345.29996301 -330.74606004 345.29996301 -331.33447266 343.44213867 C-332.05101662 340.15621006 -331.95480515 336.87402348 -331.9453125 333.52734375 C-331.94674759 332.41450768 -331.94674759 332.41450768 -331.94821167 331.27919006 C-331.9488906 329.71501582 -331.94705638 328.15083872 -331.94287109 326.58666992 C-331.93751115 324.19248134 -331.94282968 321.7984797 -331.94921875 319.40429688 C-331.94855807 317.88281209 -331.94727711 316.36132741 -331.9453125 314.83984375 C-331.94733673 314.12416733 -331.94936096 313.40849091 -331.95144653 312.67112732 C-331.93688927 309.58817275 -331.79536033 307.19858098 -330.8125 304.25 C-330.6559947 302.81864324 -330.54111045 301.38250931 -330.453125 299.9453125 C-325.94979319 234.9243588 -301.3058384 177.33861913 -261.6875 126.1875 C-261.22617676 125.58550781 -260.76485352 124.98351562 -260.28955078 124.36328125 C-259.17921186 122.95247801 -258.00181038 121.59490116 -256.8125 120.25 C-256.1525 120.25 -255.4925 120.25 -254.8125 120.25 C-254.59078125 119.71117187 -254.3690625 119.17234375 -254.140625 118.6171875 C-252.37308312 115.46680404 -250.02374788 112.98693653 -247.5625 110.375 C-247.03599854 109.81200195 -246.50949707 109.24900391 -245.96704102 108.66894531 C-236.42804782 98.53315357 -226.79498371 88.83804685 -215.8125 80.25 C-213.74448676 78.6110995 -211.68188076 76.96535061 -209.625 75.3125 C-208.70332031 74.58160156 -207.78164063 73.85070312 -206.83203125 73.09765625 C-205.83236328 72.18306641 -205.83236328 72.18306641 -204.8125 71.25 C-204.8125 70.59 -204.8125 69.93 -204.8125 69.25 C-204.2256543 69.13390381 -203.63880859 69.01780762 -203.03417969 68.89819336 C-200.67138363 68.20882814 -199.23946094 67.3317639 -197.265625 65.87890625 C-196.59362061 65.39188232 -195.92161621 64.9048584 -195.22924805 64.40307617 C-194.51422119 63.87818604 -193.79919434 63.3532959 -193.0625 62.8125 C-181.09923659 54.19992978 -168.60351635 46.56607374 -155.8125 39.25 C-156.1425 38.59 -156.4725 37.93 -156.8125 37.25 C-155.26151611 37.08153564 -155.26151611 37.08153564 -153.67919922 36.90966797 C-149.96059497 36.27526535 -147.31853205 35.33055772 -143.9453125 33.6953125 C-142.82962891 33.16824707 -141.71394531 32.64118164 -140.56445312 32.09814453 C-139.68092163 31.67689301 -139.68092163 31.67689301 -138.77954102 31.24713135 C-105.06294257 15.28369612 -68.81356885 5.65049877 -31.8125 1.25 C-30.99338135 1.146875 -30.1742627 1.04375 -29.33032227 0.9375 C-19.59752287 -0.13109478 -9.77891545 0.00608552 0 0 Z M-311.8125 431.25 C-310.8125 433.25 -310.8125 433.25 -310.8125 433.25 Z " fill="#FE883D" transform="translate(507.8125,162.75)"/>
<path d="M0 0 C0.6946637 -0.00671722 1.38932739 -0.01343445 2.1050415 -0.02035522 C4.40229438 -0.03935832 6.69925544 -0.04326062 8.99658203 -0.04541016 C10.5945752 -0.05183681 12.19256718 -0.05856507 13.79055786 -0.06558228 C17.14132413 -0.07756103 20.49198726 -0.08126252 23.84277344 -0.08007812 C28.13254599 -0.07987497 32.42165576 -0.10717 36.71127129 -0.14162254 C40.01245143 -0.16388188 43.31347188 -0.16791596 46.61471939 -0.16685867 C48.19594735 -0.16921637 49.77717959 -0.17804946 51.35833359 -0.19352341 C53.57269153 -0.21316375 55.78561804 -0.20735448 58 -0.1953125 C59.25892059 -0.19816254 60.51784119 -0.20101257 61.81491089 -0.20394897 C65.82311929 0.39402173 67.33138519 1.38904019 70.12939453 4.29052734 C71.89167786 7.09356689 71.89167786 7.09356689 73.50756836 10.36572266 C73.80756241 10.96483459 74.10755646 11.56394653 74.41664124 12.18121338 C75.40139486 14.15488343 76.36886651 16.13650416 77.33642578 18.11865234 C78.02650377 19.51002672 78.71765998 20.90086679 79.40983582 22.29119873 C81.23069012 25.95577755 83.0370589 29.62731181 84.84039307 33.30053711 C86.65027635 36.98107773 88.47326221 40.65511011 90.29541016 44.32958984 C93.30243236 50.3967452 96.2988023 56.46905624 99.28931904 62.54436111 C101.96915433 67.98126497 104.68092056 73.40201459 107.40832996 78.81520462 C110.13244271 84.23975014 112.68147294 89.73562835 115.12939453 95.29052734 C118.67097653 91.9723629 121.51416081 88.24819642 124.37939453 84.35302734 C125.44627938 82.91621759 126.51403371 81.48005317 127.58251953 80.04443359 C128.43813477 78.89418701 128.43813477 78.89418701 129.31103516 77.72070312 C132.55334463 73.38746622 135.84357111 69.0908028 139.12939453 64.79052734 C143.86866656 58.58399189 148.58511939 52.36237997 153.25439453 46.10302734 C158.05032327 39.67804673 162.95477313 33.34277894 167.89916992 27.03149414 C170.81600601 23.29945119 173.69704701 19.54823832 176.50830078 15.73583984 C177.04519531 15.00880859 177.58208984 14.28177734 178.13525391 13.53271484 C179.14113116 12.16462081 180.14153605 10.79247874 181.13525391 9.41552734 C181.58835937 8.79935547 182.04146484 8.18318359 182.50830078 7.54833984 C182.89574463 7.01354004 183.28318848 6.47874023 183.68237305 5.92773438 C186.63026092 2.59239844 188.89798872 0.47928172 193.39918518 -0.2106781 C194.63732468 -0.21084427 195.87546417 -0.21101044 197.15112305 -0.21118164 C197.83793152 -0.21658463 198.52473999 -0.22198761 199.23236084 -0.22755432 C201.49145248 -0.24001188 203.74926229 -0.22357398 206.00830078 -0.20556641 C207.58341031 -0.20572145 209.15852021 -0.20721128 210.73362732 -0.2099762 C214.02970305 -0.21135878 217.32534288 -0.19882475 220.62133789 -0.17602539 C224.84384108 -0.14761742 229.06562157 -0.15038609 233.28817844 -0.1631155 C236.53873355 -0.17007316 239.78912188 -0.16228287 243.03965569 -0.14985847 C244.59656065 -0.14534644 246.15348352 -0.14500502 247.71039009 -0.14892387 C249.88631989 -0.15183766 252.06125637 -0.13532373 254.23706055 -0.11352539 C255.47440445 -0.10812241 256.71174835 -0.10271942 257.98658752 -0.09715271 C261.41357454 0.32558229 262.86679469 0.68405884 265.12939453 3.29052734 C266.69831815 12.36371354 264.59499523 22.43781948 263.44189453 31.49755859 C263.26148758 32.96169388 263.08177363 34.4259147 262.9026947 35.89021301 C262.42100866 39.81264315 261.92966135 43.73380602 261.43638229 47.65479279 C260.91635311 51.80203763 260.4053887 55.95040013 259.89331055 60.09863281 C258.94932307 67.73424579 257.99740258 75.36884396 257.04142284 83.00296402 C256.37424165 88.33111468 255.70927203 93.65953372 255.046875 98.98828125 C254.96164235 99.67390829 254.8764097 100.35953533 254.78859425 101.06593895 C254.6196307 102.4251503 254.45066915 103.7843619 254.28170967 105.14357376 C251.90050327 124.29290141 249.49546039 143.43924029 247.08544922 162.58496094 C246.12165773 170.24171077 245.15973719 177.89869433 244.19890976 185.55581665 C243.94388 187.58721243 243.68848413 189.61856191 243.43301392 191.64990234 C241.75760465 204.97782488 240.10474508 218.3069643 238.58642578 231.65380859 C238.47005264 232.67418716 238.3536795 233.69456573 238.23377991 234.74586487 C237.70388233 239.40720838 237.1824435 244.06925486 236.67553711 248.7331543 C236.49620216 250.33822826 236.3167657 251.94329089 236.13720703 253.54833984 C236.06359451 254.25448929 235.98998199 254.96063873 235.91413879 255.68818665 C235.31221429 260.99504511 234.64965511 265.41394958 231.23046875 269.63452148 C226.44049599 272.19241672 221.86039226 271.8417583 216.51220703 271.78662109 C215.38168915 271.78807632 214.25117126 271.78953156 213.08639526 271.79103088 C210.69754457 271.78937263 208.30868311 271.77781976 205.91992188 271.75708008 C202.27443719 271.7281862 198.63041269 271.736462 194.98486328 271.74951172 C192.6606375 271.74327215 190.33641629 271.7348795 188.01220703 271.72412109 C186.92658478 271.72705673 185.84096252 271.72999237 184.72244263 271.73301697 C178.78232119 271.65946693 174.34114665 271.24385354 169.12939453 268.29052734 C167.64506258 265.32186343 168.17565451 262.41693674 168.38256836 259.18579102 C168.42915746 258.43774043 168.47574656 257.68968985 168.52374744 256.91897106 C169.26232412 246.22089198 170.71143707 235.59813343 172.07861328 224.96630859 C172.37716493 222.6122169 172.67523447 220.25806401 172.97285461 217.90385437 C173.75623995 211.71829121 174.54651716 205.53362749 175.3381958 199.34912109 C176.12139525 193.22013355 176.89740188 187.09023597 177.67431641 180.96044922 C181.42587712 151.39509467 185.25208671 121.83963842 189.12939453 92.29052734 C188.78396229 92.78006016 188.43853004 93.26959297 188.08263016 93.77396011 C186.50357395 96.01163692 184.92439542 98.24922737 183.34521484 100.48681641 C182.8018045 101.25692047 182.25839417 102.02702454 181.69851685 102.82046509 C172.60079095 115.7107099 163.32680365 128.43207417 153.72680664 140.9543457 C150.40113079 145.29479872 147.11297527 149.64745821 143.94189453 154.10302734 C139.14716957 160.77533265 133.87994586 167.07294686 128.66308594 173.41601562 C127.29974425 175.08232214 125.9507306 176.75847127 124.60986328 178.44287109 C111.9150305 194.2947376 111.9150305 194.2947376 106.59423828 196.19677734 C103.49333473 196.31471979 102.70844391 195.7403296 100.44189453 193.66552734 C89.27650004 183.00101036 81.78390569 169.52996947 74.12939453 156.29052734 C73.63681152 155.44425781 73.14422852 154.59798828 72.63671875 153.72607422 C66.67960271 143.48242895 60.90983692 133.14111977 55.25439453 122.72802734 C54.73111572 121.76541992 54.20783691 120.8028125 53.66870117 119.81103516 C50.01336164 113.03994551 46.53498301 106.19036783 43.12939453 99.29052734 C43.05803787 99.86582184 42.98668121 100.44111633 42.91316223 101.03384399 C41.58094626 111.76966515 40.24557608 122.50508498 38.89819336 133.23901367 C38.80759109 133.96082479 38.71698881 134.6826359 38.62364101 135.42632008 C38.23671659 138.50834961 37.84970285 141.59036787 37.46240044 144.67234993 C36.13984999 155.19772906 34.82623573 165.72417032 33.52294922 176.25195312 C32.23252269 186.67582574 30.93328434 197.09856438 29.62554073 207.52027893 C28.89643313 213.33360655 28.17160546 219.14740134 27.45645142 224.96246338 C26.77363138 230.51342327 26.0797415 236.062891 25.3776741 241.61144829 C25.11783227 243.68079718 24.86203675 245.75065857 24.61048508 247.82103157 C24.26322441 250.67391094 23.90158479 253.52461489 23.53637695 256.37524414 C23.43815549 257.21062525 23.33993402 258.04600636 23.23873615 258.90670204 C22.653482 263.34214376 21.92589645 266.6421352 19.12939453 270.29052734 C16.51527977 271.59758473 14.56908612 271.4319445 11.64160156 271.45166016 C10.49345978 271.4612677 9.34531799 271.47087524 8.16238403 271.48077393 C6.29367142 271.48714874 6.29367142 271.48714874 4.38720703 271.49365234 C3.11215302 271.49935242 1.837099 271.50505249 0.52340698 271.51092529 C-2.1784421 271.52038597 -4.88017981 271.52727733 -7.58203125 271.53076172 C-11.04116715 271.53624467 -14.49990905 271.56026844 -17.95892143 271.58873367 C-21.26018214 271.61185793 -24.56146259 271.61380966 -27.86279297 271.61865234 C-29.72543289 271.63717255 -29.72543289 271.63717255 -31.6257019 271.65606689 C-32.78014801 271.6530658 -33.93459412 271.6500647 -35.12402344 271.64697266 C-36.13947235 271.65061829 -37.15492126 271.65426392 -38.20114136 271.65802002 C-41.36510793 271.2224515 -42.71927514 270.6556791 -44.87060547 268.29052734 C-46.60492555 258.7347694 -44.14594154 247.99274153 -42.85107422 238.41552734 C-42.63403872 236.76287465 -42.41777251 235.11012078 -42.20220947 233.45727539 C-41.73931153 229.92007955 -41.2712639 226.38361926 -40.79904175 222.84765625 C-40.04322487 217.18776477 -39.29894857 211.52639105 -38.55639648 205.86474609 C-37.64824666 198.94584244 -36.73749748 192.02729119 -35.82335567 185.10917664 C-33.62558299 168.47321772 -31.47405928 151.83138318 -29.32785511 135.1887064 C-28.536859 129.05679609 -27.74214377 122.92537576 -26.94555664 116.79418945 C-24.85925148 100.72952459 -22.78520312 84.66362839 -20.76124573 68.5909729 C-19.96452476 62.26515754 -19.16073583 55.94024607 -18.35518932 49.61554909 C-17.70588365 44.5124416 -17.06603395 39.40826705 -16.43337154 34.30307102 C-16.04354113 31.17606037 -15.64462142 28.05025944 -15.24313164 24.92472649 C-15.0598697 23.48322783 -14.88040079 22.04124096 -14.70506477 20.59875679 C-14.46506398 18.6282948 -14.21017161 16.65966377 -13.95458984 14.69116211 C-13.81678101 13.59296646 -13.67897217 12.49477081 -13.5369873 11.36329651 C-11.69206086 2.85611223 -8.58994956 0.05208365 0 0 Z " fill="#FEFEFD" transform="translate(310.87060546875,337.70947265625)"/>
<path d="M0 0 C1.00554932 -0.00540298 2.01109863 -0.01080597 3.04711914 -0.01637268 C6.38050579 -0.0289029 9.71303493 -0.01232341 13.04638672 0.00561523 C15.3740951 0.00546018 17.70180375 0.00397009 20.0295105 0.00120544 C24.92050528 -0.00018105 29.81120778 0.01240837 34.70214844 0.03515625 C40.92422067 0.06332093 47.1457991 0.06086706 53.36790657 0.04806614 C58.18456105 0.04104951 63.00110487 0.04896954 67.81774521 0.06132317 C70.10830127 0.06579549 72.39886941 0.066212 74.68942642 0.06225777 C103.34959972 0.03597729 130.00050936 3.84736697 151.35107422 24.69311523 C170.78565078 44.54178079 175.57950543 66.88978636 175.31591797 93.98999023 C174.74078737 118.84206208 165.0328863 141.17038353 147.76513672 158.90014648 C127.89311113 177.74319987 101.37047853 184.4757059 74.67138672 184.74780273 C72.47346544 184.78069894 70.27554887 184.8139112 68.07763672 184.84741211 C64.63430592 184.89505785 61.19099972 184.93960532 57.74755859 184.97851562 C54.40948429 185.01804047 51.07176668 185.06957946 47.73388672 185.12280273 C46.17929245 185.13542397 46.17929245 185.13542397 44.59329224 185.14830017 C43.63824799 185.16494217 42.68320374 185.18158417 41.69921875 185.19873047 C40.43635544 185.21419167 40.43635544 185.21419167 39.14797974 185.22996521 C36.87711644 185.32040089 36.87711644 185.32040089 35.10107422 187.50170898 C34.6895743 190.06932462 34.39444532 192.56079539 34.17138672 195.14624023 C34.09632401 195.93167206 34.02126129 196.71710388 33.94392395 197.52633667 C33.78196491 199.22995902 33.62396958 200.93396175 33.4694519 202.63827515 C33.22489561 205.32716781 32.96866543 208.01470057 32.70874023 210.70214844 C32.34874647 214.4270503 31.99170594 218.1522102 31.63769531 221.87768555 C30.87901925 229.84300983 30.10725523 237.80664409 29.28533936 245.76571655 C29.12158243 247.37398125 28.96256064 248.98273554 28.80841064 250.59194946 C28.59306417 252.83791889 28.36252626 255.0818474 28.12841797 257.32592773 C28.00200928 258.59525146 27.87560059 259.8645752 27.74536133 261.17236328 C27.08193785 264.60059591 26.16464624 266.70670349 24.10107422 269.50170898 C21.44258626 270.83095297 19.4067561 270.64347104 16.4296875 270.6628418 C15.24150421 270.67244934 14.05332092 270.68205688 12.82913208 270.69195557 C11.53957611 270.69620544 10.25002014 270.70045532 8.92138672 270.70483398 C7.60194061 270.71053406 6.28249451 270.71623413 4.92306519 270.72210693 C2.12709162 270.73261603 -0.66885321 270.73845922 -3.46484375 270.74194336 C-7.0450421 270.74742667 -10.62485986 270.77145104 -14.20493889 270.79991531 C-16.95876164 270.81855313 -19.71249295 270.82374789 -22.46637344 270.82527924 C-24.42732391 270.82977373 -26.3882254 270.84841518 -28.34909058 270.86724854 C-30.14082199 270.86274689 -30.14082199 270.86274689 -31.96875 270.8581543 C-33.0197287 270.86179993 -34.0707074 270.86544556 -35.15353394 270.86920166 C-38.31015229 270.44666302 -39.69624407 269.78777586 -41.89892578 267.50170898 C-42.32068691 262.27796458 -41.74620624 257.3059661 -41.08642578 252.10717773 C-40.99718338 251.39042877 -40.90794098 250.67367981 -40.81599426 249.93521118 C-40.6190517 248.35698698 -40.41993065 246.77903347 -40.21890259 245.20132446 C-39.6476909 240.71678156 -39.09289253 236.2301921 -38.53564453 231.74389648 C-38.41074142 230.74177628 -38.28583832 229.73965607 -38.15715027 228.70716858 C-37.02611069 219.60321851 -35.93746955 210.49445592 -34.85595703 201.38452148 C-34.76780605 200.64255083 -34.67965508 199.90058018 -34.58883286 199.13612556 C-33.78578001 192.37669042 -32.98360873 185.61715137 -32.18432617 178.85726929 C-31.76077576 175.27560188 -31.33560799 171.6941295 -30.90942955 168.1127739 C-30.67757321 166.1605002 -30.44749201 164.20801594 -30.21748352 162.25552368 C-29.93158346 159.8550826 -29.63877475 157.45545192 -29.33828735 155.05679321 C-29.03240825 152.5817794 -28.74960274 150.10385038 -28.48471069 147.62411499 C-28.33740509 146.37546661 -28.19009949 145.12681824 -28.03833008 143.84033203 C-27.85345284 142.15824898 -27.85345284 142.15824898 -27.6648407 140.44218445 C-26.76730683 136.99640183 -25.6717903 135.68502515 -22.89892578 133.50170898 C-20.204546 132.60358239 -18.64299058 132.3719973 -15.87826538 132.35694885 C-14.6547084 132.3466011 -14.6547084 132.3466011 -13.40643311 132.33604431 C-12.51498596 132.33343094 -11.62353882 132.33081757 -10.70507812 132.328125 C-9.76324677 132.32143799 -8.82141541 132.31475098 -7.8510437 132.30786133 C-5.80324984 132.29380298 -3.75544024 132.28191143 -1.70762253 132.27191353 C1.53802408 132.25549949 4.78355506 132.23225877 8.02914429 132.20701599 C17.25830307 132.13626941 26.48751028 132.0762605 35.71679688 132.02490234 C41.36132977 131.99301256 47.00573162 131.95170639 52.65015793 131.90470695 C54.79741418 131.88874046 56.94470064 131.87639434 59.09199905 131.86779976 C62.10508679 131.85557081 65.11786989 131.8313875 68.13085938 131.8046875 C69.01016113 131.80409836 69.88946289 131.80350922 70.79541016 131.80290222 C81.63142068 131.67642509 89.9820163 129.50442468 97.85107422 121.81420898 C104.28222615 113.47109297 105.32606852 103.61736739 105.41357422 93.50170898 C105.44257812 92.4150293 105.47158203 91.32834961 105.50146484 90.20874023 C105.57654099 80.54124269 103.56511224 71.01396939 97.10107422 63.50170898 C86.85134686 55.22615091 75.75372935 54.35131486 63.04882812 54.35986328 C61.76661377 54.35465164 61.76661377 54.35465164 60.45849609 54.34933472 C58.62032329 54.34203653 56.78214202 54.33665989 54.94395828 54.33304405 C52.03551478 54.32582316 49.12723461 54.31012047 46.21884155 54.29170227 C37.95613665 54.23945772 29.69353111 54.19117431 21.43066406 54.17578125 C16.36266963 54.16572447 11.29510194 54.13647728 6.22727585 54.09446144 C4.29835606 54.08213231 2.36937615 54.07703366 0.44041824 54.07925987 C-2.24787219 54.0816019 -4.9349235 54.05953783 -7.62304688 54.03173828 C-8.81995651 54.0416404 -8.81995651 54.0416404 -10.04104614 54.05174255 C-15.41562505 53.96014639 -15.41562505 53.96014639 -17.90338135 51.60037231 C-19.06979369 49.14150989 -19.14703396 47.80134514 -18.85986328 45.10717773 C-18.77559082 44.24463379 -18.69131836 43.38208984 -18.60449219 42.4934082 C-18.49540527 41.56802246 -18.38631836 40.64263672 -18.27392578 39.68920898 C-18.17128418 38.73030762 -18.06864258 37.77140625 -17.96289062 36.78344727 C-17.7397483 34.74409171 -17.50788101 32.70567517 -17.26806641 30.66821289 C-16.8955869 27.47306795 -16.5600956 24.27539778 -16.22705078 21.07592773 C-15.99494256 19.00926564 -15.76063151 16.94284955 -15.52392578 14.87670898 C-15.42257324 13.89984131 -15.3212207 12.92297363 -15.21679688 11.91650391 C-15.10416504 11.00360596 -14.9915332 10.09070801 -14.87548828 9.15014648 C-14.78348145 8.34754395 -14.69147461 7.54494141 -14.59667969 6.71801758 C-12.27999308 -0.64058319 -6.55237694 -0.06678645 0 0 Z " fill="#FEFEFD" transform="translate(599.89892578125,337.498291015625)"/>
<path d="M0 0 C0.33 0 0.66 0 1 0 C3.01769044 14.42902997 3.01769044 14.42902997 0.61328125 18.140625 C-3.77643523 21.19594129 -8.18472129 22.12425453 -13.4777832 22.17700195 C-15.16016838 22.19625481 -15.16016838 22.19625481 -16.87654114 22.21589661 C-18.69528999 22.22697701 -18.69528999 22.22697701 -20.55078125 22.23828125 C-21.79748093 22.246353 -23.0441806 22.25442474 -24.32865906 22.26274109 C-26.96906246 22.27658108 -29.60934104 22.28759777 -32.24975586 22.29516602 C-34.95311002 22.30402761 -37.65595043 22.32490559 -40.35913086 22.35668945 C-44.25650583 22.39928762 -48.1532026 22.41552517 -52.05078125 22.42578125 C-53.86042107 22.45204338 -53.86042107 22.45204338 -55.70661926 22.47883606 C-66.35650313 22.45128905 -66.35650313 22.45128905 -71 18 C-71.62109375 15.37890625 -71.62109375 15.37890625 -71.4375 12.5625 C-71.39496094 11.63566406 -71.35242188 10.70882812 -71.30859375 9.75390625 C-71.01382723 7.12339487 -70.56750247 4.58424679 -70 2 C-69.67 2 -69.34 2 -69 2 C-69.03480469 3.05960938 -69.06960938 4.11921875 -69.10546875 5.2109375 C-69.13360399 6.59894252 -69.16090443 7.98696463 -69.1875 9.375 C-69.21263672 10.07367187 -69.23777344 10.77234375 -69.26367188 11.4921875 C-69.32978561 13.76747677 -69.32978561 13.76747677 -69 17 C-65.55171092 19.29885939 -64.2604577 19.25263567 -60.19921875 19.25878906 C-59.0078833 19.26509338 -57.81654785 19.27139771 -56.58911133 19.27789307 C-54.65781372 19.27182037 -54.65781372 19.27182037 -52.6875 19.265625 C-51.35375905 19.26697237 -50.02001857 19.2689135 -48.6862793 19.27142334 C-45.89204224 19.27437124 -43.09793312 19.2700878 -40.30371094 19.26074219 C-36.72238481 19.24934771 -33.14135846 19.25590898 -29.56004333 19.26788712 C-26.80625145 19.2751148 -24.0525306 19.27281364 -21.29873657 19.26763153 C-19.33611863 19.26564886 -17.37349792 19.27172192 -15.41088867 19.27789307 C-14.21955322 19.27158875 -13.02821777 19.26528442 -11.80078125 19.25878906 C-10.75059814 19.25719788 -9.70041504 19.25560669 -8.6184082 19.25396729 C-5.76669353 19.18519462 -5.76669353 19.18519462 -3 17 C-2.31595374 15.18456085 -2.31595374 15.18456085 -2.05078125 13.0859375 C-1.86225586 11.94511719 -1.86225586 11.94511719 -1.66992188 10.78125 C-1.55197266 9.9871875 -1.43402344 9.193125 -1.3125 8.375 C-1.11817383 7.17230469 -1.11817383 7.17230469 -0.91992188 5.9453125 C-0.60171614 3.96536573 -0.29934363 1.98288615 0 0 Z " fill="#FC5A12" transform="translate(628,588)"/>
<path d="M0 0 C0 0.33 0 0.66 0 1 C-19.99405543 2.42997076 -40.00926197 2.53986428 -60 1 C-60 0.67 -60 0.34 -60 0 C-40.02006698 -1.66747578 -19.98981457 -1.33424269 0 0 Z " fill="#FE914D" transform="translate(544,810)"/>
<path d="M0 0 C0 0.33 0 0.66 0 1 C-4.39106904 1.72116797 -8.78354473 2.43285468 -13.17749023 3.13623047 C-14.66845919 3.37621575 -16.15903222 3.61867568 -17.64916992 3.86376953 C-25.4606191 5.1469107 -33.05277496 6.3583867 -41 6 C-41 5.67 -41 5.34 -41 5 C-36.05 4.34 -31.1 3.68 -26 3 C-26 2.67 -26 2.34 -26 2 C-22.9809556 1.46616298 -19.96055856 0.94765506 -16.9375 0.4375 C-15.66616211 0.21030273 -15.66616211 0.21030273 -14.36914062 -0.02148438 C-9.25152412 -0.87112727 -5.09026582 -1.04291742 0 0 Z " fill="#FE934D" transform="translate(585,804)"/>
<path d="M0 0 C3.37019561 1.68509781 4.40050563 5.4160704 6 8.6875 C6.53367187 9.75000977 6.53367187 9.75000977 7.078125 10.83398438 C9.04932661 14.81684137 10.70982586 18.73301783 12 23 C8.86030886 20.32401709 7.18156373 16.91405704 5.3125 13.3125 C4.99216797 12.70599609 4.67183594 12.09949219 4.34179688 11.47460938 C3.55628516 9.98565434 2.77747058 8.49316953 2 7 C2 9.64 2 12.28 2 15 C1.34 15 0.68 15 0 15 C-0.33 15.99 -0.66 16.98 -1 18 C-0.505 9.09 -0.505 9.09 0 0 Z " fill="#FB5618" transform="translate(353,436)"/>
<path d="M0 0 C0.66 0 1.32 0 2 0 C2 0.66 2 1.32 2 2 C2.53625 2.226875 3.0725 2.45375 3.625 2.6875 C6.82460161 4.45570089 9.29037223 6.53670203 12 9 C12 9.66 12 10.32 12 11 C12.53625 11.226875 13.0725 11.45375 13.625 11.6875 C16.78500863 13.43382056 19.2676983 15.6402849 22 18 C21.01 18.33 20.02 18.66 19 19 C16.55976564 17.22228627 14.36759141 15.43998027 12.125 13.4375 C11.51269531 12.91091797 10.90039062 12.38433594 10.26953125 11.84179688 C6.44112594 8.49296696 3.11071461 5.02737006 0 1 C0 0.67 0 0.34 0 0 Z " fill="#FD7D31" transform="translate(281,718)"/>
<path d="M0 0 C4.25980502 1.43024306 7.14638111 3.54401404 10.5625 6.4375 C13.65634065 9.04216196 16.73558104 11.61121342 20 14 C19.67 14.99 19.34 15.98 19 17 C18.04738281 16.16855469 17.09476563 15.33710938 16.11328125 14.48046875 C14.846526 13.3826142 13.57958932 12.28496897 12.3125 11.1875 C11.68666016 10.64029297 11.06082031 10.09308594 10.41601562 9.52929688 C7.6935191 7.17740197 5.14358643 5.08554489 2.04296875 3.23828125 C1.36878906 2.82964844 0.69460938 2.42101562 0 2 C0 1.34 0 0.68 0 0 Z " fill="#FE7C30" transform="translate(721,234)"/>
<path d="M0 0 C2.69673919 1.29630899 5.18965614 2.7137343 7.671875 4.3828125 C8.33574219 4.82753906 8.99960937 5.27226563 9.68359375 5.73046875 C10.36550781 6.19066406 11.04742187 6.65085937 11.75 7.125 C12.44738281 7.59292969 13.14476562 8.06085937 13.86328125 8.54296875 C15.57692526 9.69322295 17.28865316 10.84633086 19 12 C17.21362305 12.62402344 17.21362305 12.62402344 15 13 C12.4283237 11.50695822 10.17597756 10.02079383 7.8125 8.25 C7.17119141 7.79367187 6.52988281 7.33734375 5.86914062 6.8671875 C1.13624069 3.40872208 1.13624069 3.40872208 0 0 Z " fill="#FD7E31" transform="translate(315,746)"/>
<path d="M0 0 C0.99 0.33 1.98 0.66 3 1 C1.8803014 2.00593243 0.7540588 3.0045849 -0.375 4 C-1.31472656 4.8353125 -1.31472656 4.8353125 -2.2734375 5.6875 C-4 7 -4 7 -6 7 C-6 7.66 -6 8.32 -6 9 C-7.53125 10.5078125 -7.53125 10.5078125 -9.5 12.125 C-10.1496875 12.66382813 -10.799375 13.20265625 -11.46875 13.7578125 C-11.9740625 14.16773438 -12.479375 14.57765625 -13 15 C-13.66 14.67 -14.32 14.34 -15 14 C-10.70004141 8.59748793 -6.03699234 3.49570604 0 0 Z " fill="#FE7B2F" transform="translate(297,239)"/>
<path d="M0 0 C0.33 0 0.66 0 1 0 C3.00701493 14.35268657 3.00701493 14.35268657 0.6484375 18.2109375 C-1.28001879 19.63060957 -2.65936897 20.48141708 -5 21 C-7.23828125 20.58984375 -7.23828125 20.58984375 -9 20 C-8.04867187 19.68417969 -7.09734375 19.36835937 -6.1171875 19.04296875 C-2.76193326 16.84397381 -2.53944665 16.63017202 -1.7578125 12.98828125 C-1.51965081 11.43361469 -1.30951167 9.87444256 -1.125 8.3125 C-1.00898437 7.51521484 -0.89296875 6.71792969 -0.7734375 5.89648438 C-0.49144869 3.93431227 -0.24247441 1.96744586 0 0 Z " fill="#FC5B19" transform="translate(628,588)"/>
<path d="M0 0 C0.99 0.33 1.98 0.66 3 1 C2.03644647 11.55808656 2.03644647 11.55808656 1 16 C0.34 15.67 -0.32 15.34 -1 15 C-1.66 15.99 -2.32 16.98 -3 18 C-2.85950482 16.52031676 -2.71245174 15.04125484 -2.5625 13.5625 C-2.48128906 12.73878906 -2.40007813 11.91507813 -2.31640625 11.06640625 C-2 9 -2 9 -1 8 C-0.76924918 6.65252916 -0.58846937 5.29622435 -0.4375 3.9375 C-0.2209375 1.9884375 -0.2209375 1.9884375 0 0 Z " fill="#FE924D" transform="translate(840,535)"/>
<path d="M0 0 C0.33 0 0.66 0 1 0 C1.33 7.59 1.66 15.18 2 23 C1.67 23 1.34 23 1 23 C-0.68348841 17.87633962 -1.2468852 13.57764115 -1.1875 8.125 C-1.18105469 6.80757813 -1.17460937 5.49015625 -1.16796875 4.1328125 C-1 1 -1 1 0 0 Z " fill="#FE7B30" transform="translate(179,502)"/>
<path d="M0 0 C0.33 0 0.66 0 1 0 C1.05413245 2.89608593 1.09373641 5.79115195 1.125 8.6875 C1.15013672 9.91243164 1.15013672 9.91243164 1.17578125 11.16210938 C1.2114802 15.57092929 1.07580814 18.98731576 -1 23 C-1.33 23 -1.66 23 -2 23 C-2.31918373 15.14453364 -1.35709504 7.73059495 0 0 Z " fill="#FD601F" transform="translate(555,519)"/>
<path d="M0 0 C0.33 0 0.66 0 1 0 C1.19390729 2.31197155 1.37996367 4.6246029 1.5625 6.9375 C1.66691406 8.22527344 1.77132812 9.51304687 1.87890625 10.83984375 C1.91886719 11.88269531 1.95882812 12.92554688 2 14 C1.67 14.33 1.34 14.66 1 15 C0.60430892 17.01311449 0.25747809 19.03597208 -0.0625 21.0625 C-0.23910156 22.16722656 -0.41570313 23.27195312 -0.59765625 24.41015625 C-0.73042969 25.26480469 -0.86320313 26.11945312 -1 27 C-1.33 27 -1.66 27 -2 27 C-1.85785272 23.99978513 -1.71138304 20.99988211 -1.5625 18 C-1.52318359 17.16082031 -1.48386719 16.32164062 -1.44335938 15.45703125 C-1.18148668 10.25986542 -0.7100648 5.15542847 0 0 Z " fill="#FC4F0F" transform="translate(633,538)"/>
<path d="M0 0 C3.82882586 6.74066401 4.34679933 15.37041479 4 23 C2.54296875 21.9609375 2.54296875 21.9609375 1 20 C0.48828125 16.6015625 0.48828125 16.6015625 0.3125 12.625 C0.24675781 11.31789063 0.18101562 10.01078125 0.11328125 8.6640625 C0.02386192 5.77180985 -0.02792496 2.89302543 0 0 Z " fill="#FD9753" transform="translate(841,421)"/>
<path d="M0 0 C0.99 0.66 1.98 1.32 3 2 C3 2.99 3 3.98 3 5 C2.34 5 1.68 5 1 5 C0.94729537 6.36893239 0.94729537 6.36893239 2 9 C1.67 9.66 1.34 10.32 1 11 C0.34 11 -0.32 11 -1 11 C-1.12375 11.639375 -1.2475 12.27875 -1.375 12.9375 C-1.58125 13.618125 -1.7875 14.29875 -2 15 C-2.99 15.495 -2.99 15.495 -4 16 C-2.98408579 10.53135543 -1.92908943 5.23609987 0 0 Z " fill="#FE934F" transform="translate(192,386)"/>
<path d="M0 0 C4.03837057 0.26481119 6.35406471 1.22555008 9.8125 3.25 C5.70029344 4.79207746 2.03420714 3.99901256 -2.1875 3.25 C-2.8475 2.59 -3.5075 1.93 -4.1875 1.25 C-3.1875 0.25 -3.1875 0.25 0 0 Z " fill="#FE8033" transform="translate(608.1875,176.75)"/>
<path d="M0 0 C0.99 0.33 1.98 0.66 3 1 C-1.95 7.435 -1.95 7.435 -7 14 C-7.33 12.68 -7.66 11.36 -8 10 C-6.34765625 7.421875 -6.34765625 7.421875 -4.0625 4.75 C-2.93521484 3.41195313 -2.93521484 3.41195313 -1.78515625 2.046875 C-1.19605469 1.37140625 -0.60695312 0.6959375 0 0 Z " fill="#FE7F32" transform="translate(247,288)"/>
<path d="M0 0 C0 3.52032428 -0.70351351 4.4385343 -3 7 C-3.66 7 -4.32 7 -5 7 C-5.268125 7.61875 -5.53625 8.2375 -5.8125 8.875 C-7 11 -7 11 -10 13 C-10 11.68 -10 10.36 -10 9 C-9.34 9 -8.68 9 -8 9 C-7.79375 8.443125 -7.5875 7.88625 -7.375 7.3125 C-5.44999226 4.07498698 -2.96149098 2.31768859 0 0 Z " fill="#FE7F33" transform="translate(261,274)"/>
<path d="M0 0 C0.33 0 0.66 0 1 0 C1.28545428 8.13544686 0.18396883 15.97649696 -1 24 C-1.33 24 -1.66 24 -2 24 C-2.81935735 17.77731313 -3.42568721 12.92945762 -1 7 C-0.62468554 4.67305036 -0.28082798 2.34023315 0 0 Z " fill="#FD5110" transform="translate(564,538)"/>
<path d="M0 0 C1.32 0.33 2.64 0.66 4 1 C0.04 3.97 -3.92 6.94 -8 10 C-8.66 9.67 -9.32 9.34 -10 9 C-3.55263158 2.36842105 -3.55263158 2.36842105 0 0 Z " fill="#FE7C2D" transform="translate(315,225)"/>
<path d="M0 0 C-2.119212 1.36405618 -4.24448118 2.71631775 -6.375 4.0625 C-6.97828125 4.45244141 -7.5815625 4.84238281 -8.203125 5.24414062 C-9.76492557 6.22460432 -11.37992214 7.11916075 -13 8 C-13.66 7.67 -14.32 7.34 -15 7 C-11.06592484 2.59383582 -6.13951022 -2.08689492 0 0 Z " fill="#FE7D30" transform="translate(349,207)"/>
<path d="M0 0 C1.0528418 0.01353516 1.0528418 0.01353516 2.12695312 0.02734375 C3.85561525 0.05086296 5.58410145 0.08673287 7.3125 0.125 C1.46568215 3.3082675 -4.28077195 3.56651381 -10.6875 2.125 C-7.00662647 -0.32891569 -4.24394412 -0.10302759 0 0 Z " fill="#FE7625" transform="translate(479.6875,164.875)"/>
<path d="M0 0 C-0.99 0.33 -1.98 0.66 -3 1 C-2.67 1.66 -2.34 2.32 -2 3 C-10.03571429 5.27678571 -10.03571429 5.27678571 -14 4 C-13.01 4 -12.02 4 -11 4 C-11 3.01 -11 2.02 -11 1 C-3.57142857 -1.42857143 -3.57142857 -1.42857143 0 0 Z " fill="#FE924C" transform="translate(603,798)"/>
<path d="M0 0 C4.62 2.31 9.24 4.62 14 7 C14 7.33 14 7.66 14 8 C9.93465943 8.28883414 7.66941645 7.57875609 4.1875 5.5 C3.39730469 5.0359375 2.60710937 4.571875 1.79296875 4.09375 C1.20128906 3.7328125 0.60960937 3.371875 0 3 C0 2.01 0 1.02 0 0 Z " fill="#FE7F33" transform="translate(351,768)"/>
<path d="M0 0 C1.4552777 2.9105554 0.63516661 4.95849052 0.0625 8.125 C-0.13214844 9.22070312 -0.32679688 10.31640625 -0.52734375 11.4453125 C-0.76130859 12.70988281 -0.76130859 12.70988281 -1 14 C-1.33 14 -1.66 14 -2 14 C-2.33 12.02 -2.66 10.04 -3 8 C-3.99 8.66 -4.98 9.32 -6 10 C-4.6302836 6.00499382 -2.74277578 3.19990508 0 0 Z " fill="#FB4E12" transform="translate(500,429)"/>
<path d="M0 0 C0.33 0 0.66 0 1 0 C1.027193 1.58323688 1.04648306 3.16661062 1.0625 4.75 C1.07410156 5.63171875 1.08570313 6.5134375 1.09765625 7.421875 C1.00826198 9.7818838 0.66912821 11.74498524 0 14 C-0.66 14 -1.32 14 -2 14 C-2.33 14.99 -2.66 15.98 -3 17 C-2.36934845 11.2190275 -1.34844868 5.6556294 0 0 Z " fill="#FE7A2C" transform="translate(839,546)"/>
<path d="M0 0 C0 3.67034745 -1.0752892 5.0999431 -3 8.1875 C-3.556875 9.08855469 -4.11375 9.98960937 -4.6875 10.91796875 C-5.120625 11.60503906 -5.55375 12.29210937 -6 13 C-6.93616694 10.47518613 -7.17818983 9.40525028 -6.07421875 6.89453125 C-5.61660156 6.20746094 -5.15898437 5.52039063 -4.6875 4.8125 C-4.23761719 4.11769531 -3.78773438 3.42289062 -3.32421875 2.70703125 C-2 1 -2 1 0 0 Z " fill="#FE7E2F" transform="translate(223,324)"/>
<path d="M0 0 C0 3.63195496 -0.95453155 4.74713911 -3 7.6875 C-3.556875 8.49574219 -4.11375 9.30398438 -4.6875 10.13671875 C-5.120625 10.75160156 -5.55375 11.36648438 -6 12 C-6.64453125 10.23046875 -6.64453125 10.23046875 -7 8 C-6.07421875 6.11328125 -6.07421875 6.11328125 -4.6875 4.3125 C-4.23761719 3.71050781 -3.78773438 3.10851562 -3.32421875 2.48828125 C-2 1 -2 1 0 0 Z " fill="#FE7C2E" transform="translate(232,310)"/>
<path d="M0 0 C-3 2 -3 2 -6 2 C-6 2.66 -6 3.32 -6 4 C-9 5 -9 5 -11.1875 4.0625 C-11.785625 3.711875 -12.38375 3.36125 -13 3 C-8.44573816 0.33409063 -5.26053037 -0.31563182 0 0 Z " fill="#FE7E2E" transform="translate(424,176)"/>
<path d="M0 0 C3 2 3 2 3.73046875 5.0390625 C3.88128906 6.22242188 4.03210938 7.40578125 4.1875 8.625 C4.34605469 9.81351562 4.50460937 11.00203125 4.66796875 12.2265625 C4.77753906 13.14179688 4.88710938 14.05703125 5 15 C2.68994131 12.68994131 2.27825897 11.16916343 1.375 8.0625 C1.11460937 7.18722656 0.85421875 6.31195313 0.5859375 5.41015625 C0 3 0 3 0 0 Z " fill="#FE782B" transform="translate(829,382)"/>
<path d="M0 0 C0.60546875 1.8046875 0.60546875 1.8046875 1 4 C-1.08139861 7.85444186 -2.79030081 10.49653601 -7 12 C-5.61735163 9.13132769 -4.07851447 6.43975968 -2.375 3.75 C-1.92898438 3.04359375 -1.48296875 2.3371875 -1.0234375 1.609375 C-0.68570313 1.07828125 -0.34796875 0.5471875 0 0 Z " fill="#FE7D2D" transform="translate(797,652)"/>
<path d="M0 0 C0.33 0 0.66 0 1 0 C1.21156222 4.44280672 0.80795432 7.9083139 -1 12 C-1.99 12.33 -2.98 12.66 -4 13 C-3.52343588 11.20763933 -3.04366502 9.41613103 -2.5625 7.625 C-2.29566406 6.62726562 -2.02882813 5.62953125 -1.75390625 4.6015625 C-1 2 -1 2 0 0 Z " fill="#FE7F32" transform="translate(829,584)"/>
<path d="M0 0 C2.72574271 0.37330824 3.80822085 0.79194601 5.703125 2.84765625 C6.21359375 3.57855469 6.7240625 4.30945313 7.25 5.0625 C8.03117188 6.16271484 8.03117188 6.16271484 8.828125 7.28515625 C9.21484375 7.85105469 9.6015625 8.41695313 10 9 C7 9 7 9 4.3125 6.625 C2 4 2 4 2 2 C1.34 2 0.68 2 0 2 C0 1.34 0 0.68 0 0 Z " fill="#FE7E30" transform="translate(751,260)"/>
<path d="M0 0 C0.33 0 0.66 0 1 0 C1.10251672 5.12583611 1.03590199 9.94997778 0 15 C-0.33 15 -0.66 15 -1 15 C-1.33 11.37 -1.66 7.74 -2 4 C-1.34 4 -0.68 4 0 4 C0 2.68 0 1.36 0 0 Z " fill="#FD5515" transform="translate(492,483)"/>
<path d="M0 0 C1.7074998 1.28062485 3.37373596 2.61767557 5 4 C5 4.66 5 5.32 5 6 C5.66 6 6.32 6 7 6 C7.33 6.99 7.66 7.98 8 9 C4.86493389 8.66410006 3.974751 7.97334828 1.75 5.625 C0 3 0 3 0 0 Z " fill="#FD7A2C" transform="translate(265,701)"/>
<path d="M0 0 C1.04005702 3.38018531 1.08004482 6.4780279 1 10 C0.01 10 -0.98 10 -2 10 C-2.25 3.375 -2.25 3.375 0 0 Z " fill="#FE7B2C" transform="translate(189,400)"/>
<path d="M0 0 C3.3 0 6.6 0 10 0 C10 0.66 10 1.32 10 2 C11.32 2.33 12.64 2.66 14 3 C12.41590006 2.88512252 10.83271037 2.75765492 9.25 2.625 C8.36828125 2.55539063 7.4865625 2.48578125 6.578125 2.4140625 C4 2 4 2 0 0 Z " fill="#FE7526" transform="translate(574,170)"/>
<path d="M0 0 C-1 2 -1 2 -3.25 3.125 C-6.01613295 4.00513321 -8.12048351 4.1645438 -11 4 C-3.77464789 -1.88732394 -3.77464789 -1.88732394 0 0 Z " fill="#FE7E30" transform="translate(654,781)"/>
<path d="M0 0 C-1 3 -1 3 -2.8125 4.25 C-5.33943414 5.11637742 -6.52221994 4.88492145 -9 4 C-2.25 0 -2.25 0 0 0 Z " fill="#FE8032" transform="translate(676,769)"/>
<path d="M0 0 C3 1 3 1 4.6875 3.25 C6.06511203 6.1364252 6.26985151 7.85173236 6 11 C0 3.28571429 0 3.28571429 0 0 Z " fill="#FE7D30" transform="translate(805,330)"/>
<path d="M0 0 C3.78786597 0.5260925 6.17152224 1.38103911 9 4 C9 4.66 9 5.32 9 6 C5.06326356 4.68775452 2.77280706 3.08089673 0 0 Z " fill="#FE7B2E" transform="translate(702,221)"/>
<path d="M0 0 C0.33 0.66 0.66 1.32 1 2 C-1.31 2.66 -3.62 3.32 -6 4 C-6.66 3.01 -7.32 2.02 -8 1 C-3.375 -1.125 -3.375 -1.125 0 0 Z " fill="#FE944A" transform="translate(390,187)"/>
<path d="M0 0 C2.93200474 2.85276137 5.64315404 5.65079784 8 9 C4.86493389 8.66410006 3.974751 7.97334828 1.75 5.625 C0 3 0 3 0 0 Z " fill="#FD792B" transform="translate(255,690)"/>
<path d="M0 0 C3.25058587 0.71713956 4.91284151 1.31651051 7 4 C7.6875 6.1875 7.6875 6.1875 8 8 C7.34 8 6.68 8 6 8 C4.4921875 6.25 4.4921875 6.25 2.875 4 C2.33617187 3.2575 1.79734375 2.515 1.2421875 1.75 C0.62730469 0.88375 0.62730469 0.88375 0 0 Z " fill="#FE7C2D" transform="translate(761,271)"/>
<path d="M0 0 C2.875 -0.125 2.875 -0.125 6 0 C6.66 0.66 7.32 1.32 8 2 C7 3 7 3 3.9375 3.0625 C2.968125 3.041875 1.99875 3.02125 1 3 C0.67 2.01 0.34 1.02 0 0 Z " fill="#FE7F34" transform="translate(391,787)"/>
<path d="M0 0 C2.96404505 2.80804268 5.44499019 5.18315774 7 9 C3.64564078 7.61198929 1.88709697 6.11371 0 3 C0 2.01 0 1.02 0 0 Z " fill="#FD782B" transform="translate(247,680)"/>
<path d="M0 0 C0.33 0.99 0.66 1.98 1 3 C-0.8125 6.1875 -0.8125 6.1875 -3 9 C-3.66 9 -4.32 9 -5 9 C-3.7508258 5.54074837 -2.32472205 2.85306797 0 0 Z " fill="#FE7E32" transform="translate(785,670)"/>
<path d="M0 0 C3.08089673 2.77280706 4.68775452 5.06326356 6 9 C3.5067466 8.00269864 2.22532561 7.34925469 0.75 5.0625 C0 3 0 3 0 0 Z " fill="#FD7E30" transform="translate(227,652)"/>
<path d="M0 0 C2.97 0 5.94 0 9 0 C9 0.66 9 1.32 9 2 C9.66 2.33 10.32 2.66 11 3 C9.741875 2.87625 8.48375 2.7525 7.1875 2.625 C6.12595703 2.52058594 6.12595703 2.52058594 5.04296875 2.4140625 C3 2 3 2 0 0 Z " fill="#FE782A" transform="translate(593,174)"/>
<path d="M0 0 C0.33 0 0.66 0 1 0 C1 2.64 1 5.28 1 8 C0.34 8 -0.32 8 -1 8 C-1.33 8.66 -1.66 9.32 -2 10 C-1.125 2.25 -1.125 2.25 0 0 Z " fill="#FE792A" transform="translate(835,564)"/>
<path d="M0 0 C0 0.99 0 1.98 0 3 C-0.99 3.33 -1.98 3.66 -3 4 C-3 4.66 -3 5.32 -3 6 C-3.99 6.33 -4.98 6.66 -6 7 C-5.8125 5.1875 -5.8125 5.1875 -5 3 C-2.4375 1.25 -2.4375 1.25 0 0 Z " fill="#FE7D31" transform="translate(272,263)"/>
<path d="M0 0 C3.375 0.3125 3.375 0.3125 7 1 C7.66 1.99 8.32 2.98 9 4 C7.68528432 3.71848913 6.37324233 3.42446661 5.0625 3.125 C3.96615234 2.88136719 3.96615234 2.88136719 2.84765625 2.6328125 C1 2 1 2 0 0 Z " fill="#FE7A2D" transform="translate(636,187)"/>
<path d="M0 0 C-1.0625 1.5 -1.0625 1.5 -3 3 C-6.6875 3.1875 -6.6875 3.1875 -10 3 C-7.29536552 -0.8183075 -4.37912428 -0.24787496 0 0 Z " fill="#FE934A" transform="translate(567,167)"/>
<path d="M0 0 C0.66 0.33 1.32 0.66 2 1 C1.67 1.66 1.34 2.32 1 3 C-1.64860427 3.59355614 -4.29197322 3.74209269 -7 4 C-4.61426621 2.10786631 -2.92824652 0.97608217 0 0 Z " fill="#FE7E31" transform="translate(632,788)"/>
<path d="M0 0 C2.72426311 2.35277269 3.8141763 4.62496331 5 8 C3.0625 7.375 3.0625 7.375 1 6 C0.25 2.875 0.25 2.875 0 0 Z " fill="#FE8034" transform="translate(221,642)"/>
<path d="M0 0 C0.33 1.32 0.66 2.64 1 4 C-0.98 5.32 -2.96 6.64 -5 8 C-3.62845496 5.04590299 -2.01136276 2.55991624 0 0 Z " fill="#FD5B1D" transform="translate(478,460)"/>
<path d="M0 0 C0.33 0.66 0.66 1.32 1 2 C-1.46153846 5.81538462 -1.46153846 5.81538462 -4.1875 6.75 C-4.785625 6.8325 -5.38375 6.915 -6 7 C-5.34 5.35 -4.68 3.7 -4 2 C-3.34 2.33 -2.68 2.66 -2 3 C-1.34 2.01 -0.68 1.02 0 0 Z " fill="#FC8F47" transform="translate(228,318)"/>
<path d="M0 0 C0.66 0.66 1.32 1.32 2 2 C1.01 3.32 0.02 4.64 -1 6 C-0.67 4.02 -0.34 2.04 0 0 Z " fill="#FB8F48" transform="translate(193,376)"/>
<path d="M0 0 C2 3 2 3 2 5 C1.34 5 0.68 5 0 5 C0 3.35 0 1.7 0 0 Z " fill="#FE8D45" transform="translate(192,586)"/>
<path d="M0 0 C0.66 0 1.32 0 2 0 C2 0.66 2 1.32 2 2 C1.01 2.33 0.02 2.66 -1 3 C-0.67 2.01 -0.34 1.02 0 0 Z " fill="#FE8F48" transform="translate(201,612)"/>
<path d="M0 0 C0.33 0 0.66 0 1 0 C1 1.65 1 3.3 1 5 C0.34 4.67 -0.32 4.34 -1 4 C-0.67 2.68 -0.34 1.36 0 0 Z " fill="#FE9048" transform="translate(178,528)"/>
<path d="M0 0 C0.33 0 0.66 0 1 0 C1 1.98 1 3.96 1 6 C0.67 6 0.34 6 0 6 C0 4.02 0 2.04 0 0 Z " fill="#FE924C" transform="translate(176,510)"/>
<path d="M0 0 C0.66 0.66 1.32 1.32 2 2 C1.34 2.66 0.68 3.32 0 4 C0 2.68 0 1.36 0 0 Z " fill="#FD8F46" transform="translate(216,640)"/>
<path d="M0 0 C0.33 0 0.66 0 1 0 C1 1.65 1 3.3 1 5 C0.67 5 0.34 5 0 5 C0 3.35 0 1.7 0 0 Z " fill="#FE914A" transform="translate(177,522)"/>
<path d="M0 0 C0.33 0 0.66 0 1 0 C1 1.65 1 3.3 1 5 C0.67 5 0.34 5 0 5 C0 3.35 0 1.7 0 0 Z " fill="#FD8F4A" transform="translate(176,457)"/>
<path d="M0 0 C0.99 0.495 0.99 0.495 2 1 C1.01 2.485 1.01 2.485 0 4 C0 2.68 0 1.36 0 0 Z " fill="#FD904B" transform="translate(176,450)"/>
<path d="M0 0 C0.99 0.495 0.99 0.495 2 1 C1.34 1.66 0.68 2.32 0 3 C0 2.01 0 1.02 0 0 Z " fill="#FE924B" transform="translate(177,443)"/>
<path d="M0 0 C1 4 1 4 1 4 Z " fill="#FC924E" transform="translate(845,431)"/>
<path d="M0 0 C0 3 0 3 0 3 Z " fill="#F98C46" transform="translate(791,301)"/>
<path d="M0 0 C0.99 0.495 0.99 0.495 2 1 C1.67 1.66 1.34 2.32 1 3 C0.67 2.01 0.34 1.02 0 0 Z " fill="#FC8F46" transform="translate(717,224)"/>
<path d="M0 0 C4 1 4 1 4 1 Z " fill="#FC9249" transform="translate(581,168)"/>
<path d="M0 0 C3 1 3 1 3 1 Z " fill="#FF9047" transform="translate(450,807)"/>
<path d="M0 0 C0.66 0.66 1.32 1.32 2 2 C1.34 2 0.68 2 0 2 C0 1.34 0 0.68 0 0 Z " fill="#FD8C41" transform="translate(354,773)"/>
<path d="M0 0 C0.33 0.66 0.66 1.32 1 2 C0.34 1.67 -0.32 1.34 -1 1 C-0.67 0.67 -0.34 0.34 0 0 Z " fill="#FB8C43" transform="translate(685,766)"/>
<path d="M0 0 C0.99 0.495 0.99 0.495 2 1 C1.01 1.495 1.01 1.495 0 2 C0 1.34 0 0.68 0 0 Z " fill="#F68C43" transform="translate(304,742)"/>
<path d="M0 0 C0.66 0.66 1.32 1.32 2 2 C1.34 2 0.68 2 0 2 C0 1.34 0 0.68 0 0 Z " fill="#FB8D46" transform="translate(806,646)"/>
<path d="M0 0 C0.33 0.66 0.66 1.32 1 2 C0.34 1.67 -0.32 1.34 -1 1 C-0.67 0.67 -0.34 0.34 0 0 Z " fill="#FD8F46" transform="translate(210,628)"/>
<path d="" fill="#FE9049" transform="translate(0,0)"/>
<path d="M0 0 C0.66 0 1.32 0 2 0 C1.67 0.66 1.34 1.32 1 2 C0.67 1.34 0.34 0.68 0 0 Z " fill="#FF924A" transform="translate(187,574)"/>
<path d="M0 0 C0.33 0.66 0.66 1.32 1 2 C0.34 1.67 -0.32 1.34 -1 1 C-0.67 0.67 -0.34 0.34 0 0 Z " fill="#FF934C" transform="translate(186,567)"/>
<path d="" fill="#FE904B" transform="translate(0,0)"/>
<path d="" fill="#FD934D" transform="translate(0,0)"/>
<path d="" fill="#FB8D47" transform="translate(0,0)"/>
<path d="M0 0 C0.99 0.495 0.99 0.495 2 1 C1.01 1.495 1.01 1.495 0 2 C0 1.34 0 0.68 0 0 Z " fill="#F9904A" transform="translate(821,353)"/>
<path d="M0 0 C0.33 0.66 0.66 1.32 1 2 C0.34 1.67 -0.32 1.34 -1 1 C-0.67 0.67 -0.34 0.34 0 0 Z " fill="#FD8E46" transform="translate(202,352)"/>
<path d="M0 0 C0.66 0 1.32 0 2 0 C1.67 0.66 1.34 1.32 1 2 C0.67 1.34 0.34 0.68 0 0 Z " fill="#FC8F49" transform="translate(804,320)"/>
<path d="" fill="#FA8E48" transform="translate(0,0)"/>
<path d="M0 0 C0.66 0 1.32 0 2 0 C1.67 0.66 1.34 1.32 1 2 C0.67 1.34 0.34 0.68 0 0 Z " fill="#F98D46" transform="translate(248,283)"/>
<path d="M0 0 C0.99 0.495 0.99 0.495 2 1 C1.01 1.495 1.01 1.495 0 2 C0 1.34 0 0.68 0 0 Z " fill="#FB9046" transform="translate(288,242)"/>
<path d="M0 0 C3 1 3 1 3 1 Z " fill="#FC8E44" transform="translate(290,241)"/>
<path d="M0 0 C0.66 0 1.32 0 2 0 C1.67 0.66 1.34 1.32 1 2 C0.67 1.34 0.34 0.68 0 0 Z " fill="#F68B45" transform="translate(733,240)"/>
<path d="M0 0 C0.99 0.495 0.99 0.495 2 1 C1.01 1.495 1.01 1.495 0 2 C0 1.34 0 0.68 0 0 Z " fill="#FC924A" transform="translate(296,235)"/>
<path d="M0 0 C3 1 3 1 3 1 Z " fill="#F99249" transform="translate(368,192)"/>
<path d="M0 0 C3 1 3 1 3 1 Z " fill="#FA8E47" transform="translate(636,184)"/>
<path d="M0 0 C0.66 0.66 1.32 1.32 2 2 C1.34 2 0.68 2 0 2 C0 1.34 0 0.68 0 0 Z " fill="#FE9146" transform="translate(622,178)"/>
<path d="M0 0 C3 1 3 1 3 1 Z " fill="#FC9349" transform="translate(400,179)"/>
<path d="M0 0 C3 1 3 1 3 1 Z " fill="#FA9047" transform="translate(613,176)"/>
<path d="M0 0 C3 1 3 1 3 1 Z " fill="#FD9047" transform="translate(410,176)"/>
<path d="" fill="#FF8F46" transform="translate(0,0)"/>
<path d="M0 0 C2 1 2 1 2 1 Z " fill="#FF8E49" transform="translate(585,805)"/>
<path d="M0 0 C2 1 2 1 2 1 Z " fill="#FF944A" transform="translate(431,803)"/>
<path d="M0 0 C2 1 2 1 2 1 Z " fill="#FB8E44" transform="translate(633,791)"/>
<path d="M0 0 C2 1 2 1 2 1 Z " fill="#FD8D43" transform="translate(373,783)"/>
<path d="" fill="#FD9046" transform="translate(0,0)"/>
<path d="M0 0 C2 1 2 1 2 1 Z " fill="#FE8F46" transform="translate(371,782)"/>
<path d="M0 0 C2 1 2 1 2 1 Z " fill="#FC8F46" transform="translate(369,781)"/>
<path d="M0 0 C2 1 2 1 2 1 Z " fill="#FE8E46" transform="translate(356,775)"/>
<path d="" fill="#FD9047" transform="translate(0,0)"/>
<path d="" fill="#FE8F46" transform="translate(0,0)"/>
<path d="" fill="#FA8E47" transform="translate(0,0)"/>
<path d="" fill="#FC8D46" transform="translate(0,0)"/>
<path d="" fill="#FD8F45" transform="translate(0,0)"/>
<path d="" fill="#FF934B" transform="translate(0,0)"/>
<path d="" fill="#FC904A" transform="translate(0,0)"/>
<path d="" fill="#FF934E" transform="translate(0,0)"/>
<path d="" fill="#FF924A" transform="translate(0,0)"/>
<path d="" fill="#FD924B" transform="translate(0,0)"/>
<path d="" fill="#FF924A" transform="translate(0,0)"/>
<path d="" fill="#F9904E" transform="translate(0,0)"/>
<path d="M0 0 C2 1 2 1 2 1 Z " fill="#FE914C" transform="translate(176,448)"/>
<path d="" fill="#FE934C" transform="translate(0,0)"/>
<path d="M0 0 C2 1 2 1 2 1 Z " fill="#FF924A" transform="translate(178,436)"/>
<path d="" fill="#FF8F46" transform="translate(0,0)"/>
<path d="M0 0 C2 1 2 1 2 1 Z " fill="#F98E46" transform="translate(814,338)"/>
<path d="M0 0 C2 1 2 1 2 1 Z " fill="#F98C44" transform="translate(216,328)"/>
<path d="" fill="#FC8A42" transform="translate(0,0)"/>
<path d="" fill="#F88C48" transform="translate(0,0)"/>
<path d="M0 0 C2 1 2 1 2 1 Z " fill="#FA8F47" transform="translate(789,298)"/>
<path d="M0 0 C2 1 2 1 2 1 Z " fill="#FA8E46" transform="translate(256,272)"/>
<path d="M0 0 C2 1 2 1 2 1 Z " fill="#FC8F47" transform="translate(288,240)"/>
<path d="M0 0 C2 1 2 1 2 1 Z " fill="#FF954A" transform="translate(432,170)"/>
<path d="M0 0 C2 1 2 1 2 1 Z " fill="#FB944A" transform="translate(440,168)"/>
<path d="M0 0 C2 1 2 1 2 1 Z " fill="#FF9549" transform="translate(522,161)"/>
<path d="M0 0 C2 1 2 1 2 1 Z " fill="#FF974B" transform="translate(491,161)"/>
<path d="" fill="#FE914A" transform="translate(0,0)"/>
<path d="" fill="#FF9248" transform="translate(0,0)"/>
<path d="" fill="#FF944A" transform="translate(0,0)"/>
<path d="" fill="#FF944D" transform="translate(0,0)"/>
<path d="" fill="#FF9149" transform="translate(0,0)"/>
<path d="" fill="#FF8B42" transform="translate(0,0)"/>
<path d="" fill="#FE9249" transform="translate(0,0)"/>
<path d="" fill="#FC8A44" transform="translate(0,0)"/>
<path d="" fill="#FF8F46" transform="translate(0,0)"/>
<path d="" fill="#FD9146" transform="translate(0,0)"/>
<path d="" fill="#FF9249" transform="translate(0,0)"/>
<path d="" fill="#FC8941" transform="translate(0,0)"/>
<path d="" fill="#FF914A" transform="translate(0,0)"/>
<path d="" fill="#FF9049" transform="translate(0,0)"/>
<path d="" fill="#FF934A" transform="translate(0,0)"/>
<path d="" fill="#FB8C3F" transform="translate(0,0)"/>
<path d="" fill="#FF9048" transform="translate(0,0)"/>
<path d="" fill="#FF9049" transform="translate(0,0)"/>
<path d="" fill="#FD914C" transform="translate(0,0)"/>
<path d="" fill="#FF9149" transform="translate(0,0)"/>
<path d="" fill="#FA924A" transform="translate(0,0)"/>
<path d="" fill="#FD9145" transform="translate(0,0)"/>
<path d="" fill="#FE8D43" transform="translate(0,0)"/>
<path d="" fill="#FD8F44" transform="translate(0,0)"/>
<path d="" fill="#FC8D45" transform="translate(0,0)"/>
<path d="" fill="#FF924A" transform="translate(0,0)"/>
<path d="" fill="#FD8B3D" transform="translate(0,0)"/>
<path d="" fill="#F99147" transform="translate(0,0)"/>
<path d="" fill="#FC9149" transform="translate(0,0)"/>
<path d="" fill="#FF8C44" transform="translate(0,0)"/>
<path d="" fill="#FD9047" transform="translate(0,0)"/>
<path d="" fill="#FE914B" transform="translate(0,0)"/>
<path d="" fill="#FA8E45" transform="translate(0,0)"/>
<path d="" fill="#FE8C42" transform="translate(0,0)"/>
<path d="" fill="#FE8C43" transform="translate(0,0)"/>
<path d="" fill="#FF8E45" transform="translate(0,0)"/>
<path d="" fill="#FC9049" transform="translate(0,0)"/>
<path d="" fill="#F78B45" transform="translate(0,0)"/>
<path d="" fill="#FE8F46" transform="translate(0,0)"/>
<path d="" fill="#FD9046" transform="translate(0,0)"/>
<path d="" fill="#FE8D44" transform="translate(0,0)"/>
<path d="" fill="#FF893E" transform="translate(0,0)"/>
<path d="" fill="#FD8A40" transform="translate(0,0)"/>
<path d="" fill="#F68C47" transform="translate(0,0)"/>
<path d="" fill="#F99048" transform="translate(0,0)"/>
<path d="" fill="#FD9047" transform="translate(0,0)"/>
<path d="" fill="#FD8F47" transform="translate(0,0)"/>
<path d="" fill="#FB9045" transform="translate(0,0)"/>
<path d="" fill="#FD8C3F" transform="translate(0,0)"/>
<path d="" fill="#FA883E" transform="translate(0,0)"/>
<path d="" fill="#FA8C46" transform="translate(0,0)"/>
<path d="" fill="#FD9249" transform="translate(0,0)"/>
<path d="" fill="#FC8D46" transform="translate(0,0)"/>
<path d="" fill="#F98F48" transform="translate(0,0)"/>
<path d="" fill="#FD8B41" transform="translate(0,0)"/>
<path d="" fill="#FD8F45" transform="translate(0,0)"/>
<path d="" fill="#FE9147" transform="translate(0,0)"/>
<path d="" fill="#FC8B42" transform="translate(0,0)"/>
<path d="" fill="#FB914B" transform="translate(0,0)"/>
<path d="" fill="#FC9248" transform="translate(0,0)"/>
<path d="" fill="#FC9048" transform="translate(0,0)"/>
<path d="" fill="#FB9049" transform="translate(0,0)"/>
<path d="" fill="#FC9045" transform="translate(0,0)"/>
<path d="" fill="#FC8E45" transform="translate(0,0)"/>
<path d="" fill="#FA9149" transform="translate(0,0)"/>
<path d="" fill="#FE8C46" transform="translate(0,0)"/>
<path d="" fill="#F98941" transform="translate(0,0)"/>
<path d="" fill="#FE8C42" transform="translate(0,0)"/>
<path d="" fill="#FE8E46" transform="translate(0,0)"/>
<path d="" fill="#FB8E46" transform="translate(0,0)"/>
<path d="" fill="#FD9047" transform="translate(0,0)"/>
<path d="" fill="#FC8E45" transform="translate(0,0)"/>
<path d="" fill="#FF9149" transform="translate(0,0)"/>
<path d="" fill="#FC904A" transform="translate(0,0)"/>
<path d="" fill="#FC9149" transform="translate(0,0)"/>
<path d="" fill="#FE904A" transform="translate(0,0)"/>
<path d="" fill="#FF9048" transform="translate(0,0)"/>
<path d="" fill="#F48A48" transform="translate(0,0)"/>
<path d="" fill="#FF8D44" transform="translate(0,0)"/>
<path d="" fill="#FA8B48" transform="translate(0,0)"/>
<path d="" fill="#FC8F49" transform="translate(0,0)"/>
<path d="" fill="#FE8B44" transform="translate(0,0)"/>
<path d="" fill="#FF8F48" transform="translate(0,0)"/>
<path d="" fill="#FD8F47" transform="translate(0,0)"/>
<path d="" fill="#FF9045" transform="translate(0,0)"/>
<path d="" fill="#FE9049" transform="translate(0,0)"/>
<path d="" fill="#FC904A" transform="translate(0,0)"/>
<path d="" fill="#FC8C44" transform="translate(0,0)"/>
<path d="" fill="#FE8F47" transform="translate(0,0)"/>
<path d="" fill="#FB8E46" transform="translate(0,0)"/>
<path d="" fill="#FD914C" transform="translate(0,0)"/>
<path d="" fill="#FE944B" transform="translate(0,0)"/>
<path d="" fill="#FF934A" transform="translate(0,0)"/>
<path d="" fill="#FF9149" transform="translate(0,0)"/>
<path d="" fill="#FF954D" transform="translate(0,0)"/>
<path d="" fill="#FA8E4A" transform="translate(0,0)"/>
<path d="" fill="#FE944C" transform="translate(0,0)"/>
<path d="" fill="#FE9049" transform="translate(0,0)"/>
<path d="" fill="#FF9650" transform="translate(0,0)"/>
<path d="" fill="#FF9349" transform="translate(0,0)"/>
<path d="" fill="#FD934D" transform="translate(0,0)"/>
<path d="" fill="#FF9147" transform="translate(0,0)"/>
<path d="" fill="#FF924B" transform="translate(0,0)"/>
<path d="" fill="#FF924B" transform="translate(0,0)"/>
<path d="" fill="#FA944F" transform="translate(0,0)"/>
<path d="" fill="#FC9450" transform="translate(0,0)"/>
<path d="" fill="#FF9049" transform="translate(0,0)"/>
<path d="" fill="#FC9148" transform="translate(0,0)"/>
<path d="" fill="#FB924C" transform="translate(0,0)"/>
<path d="" fill="#FD9048" transform="translate(0,0)"/>
<path d="" fill="#FF9249" transform="translate(0,0)"/>
<path d="" fill="#FD944C" transform="translate(0,0)"/>
<path d="" fill="#FD924A" transform="translate(0,0)"/>
<path d="" fill="#FE9651" transform="translate(0,0)"/>
<path d="" fill="#FD8E47" transform="translate(0,0)"/>
<path d="" fill="#FB9049" transform="translate(0,0)"/>
<path d="" fill="#FD914A" transform="translate(0,0)"/>
<path d="" fill="#FB924C" transform="translate(0,0)"/>
<path d="" fill="#FA934D" transform="translate(0,0)"/>
<path d="" fill="#FA8C47" transform="translate(0,0)"/>
<path d="" fill="#FB914C" transform="translate(0,0)"/>
<path d="" fill="#FF8F48" transform="translate(0,0)"/>
<path d="" fill="#FE9049" transform="translate(0,0)"/>
<path d="" fill="#FD934C" transform="translate(0,0)"/>
<path d="" fill="#F68C49" transform="translate(0,0)"/>
<path d="" fill="#F98B46" transform="translate(0,0)"/>
<path d="" fill="#FD8F45" transform="translate(0,0)"/>
<path d="" fill="#F98C48" transform="translate(0,0)"/>
<path d="" fill="#FE8D47" transform="translate(0,0)"/>
<path d="" fill="#FF8E42" transform="translate(0,0)"/>
<path d="" fill="#F98E4A" transform="translate(0,0)"/>
<path d="" fill="#FC8E48" transform="translate(0,0)"/>
<path d="" fill="#F78C48" transform="translate(0,0)"/>
<path d="" fill="#FD8D46" transform="translate(0,0)"/>
<path d="" fill="#FF8E44" transform="translate(0,0)"/>
<path d="" fill="#FC8E47" transform="translate(0,0)"/>
<path d="" fill="#F68C48" transform="translate(0,0)"/>
<path d="" fill="#F68941" transform="translate(0,0)"/>
<path d="" fill="#FD8F48" transform="translate(0,0)"/>
<path d="" fill="#FC8D45" transform="translate(0,0)"/>
<path d="" fill="#FB8D45" transform="translate(0,0)"/>
<path d="" fill="#FA8E46" transform="translate(0,0)"/>
<path d="" fill="#F98F4A" transform="translate(0,0)"/>
<path d="" fill="#FC8E47" transform="translate(0,0)"/>
<path d="" fill="#FD8F47" transform="translate(0,0)"/>
<path d="" fill="#FC9246" transform="translate(0,0)"/>
<path d="" fill="#FA8E47" transform="translate(0,0)"/>
<path d="" fill="#FD9048" transform="translate(0,0)"/>
<path d="" fill="#FB8C44" transform="translate(0,0)"/>
<path d="" fill="#FA8E46" transform="translate(0,0)"/>
<path d="" fill="#FA8E45" transform="translate(0,0)"/>
<path d="" fill="#FC8F48" transform="translate(0,0)"/>
<path d="" fill="#FC9148" transform="translate(0,0)"/>
<path d="" fill="#FB9247" transform="translate(0,0)"/>
<path d="" fill="#FC8942" transform="translate(0,0)"/>
<path d="" fill="#FC9048" transform="translate(0,0)"/>
<path d="" fill="#F89046" transform="translate(0,0)"/>
<path d="" fill="#FE9248" transform="translate(0,0)"/>
<path d="" fill="#FB9151" transform="translate(0,0)"/>
<path d="" fill="#FB9046" transform="translate(0,0)"/>
<path d="" fill="#F78D43" transform="translate(0,0)"/>
<path d="" fill="#FF8D40" transform="translate(0,0)"/>
<path d="" fill="#FB8D45" transform="translate(0,0)"/>
<path d="" fill="#FD9247" transform="translate(0,0)"/>
<path d="" fill="#FB8E45" transform="translate(0,0)"/>
<path d="" fill="#FB9248" transform="translate(0,0)"/>
<path d="" fill="#FD9348" transform="translate(0,0)"/>
<path d="" fill="#FB8E46" transform="translate(0,0)"/>
<path d="" fill="#FE9148" transform="translate(0,0)"/>
<path d="" fill="#FE8B42" transform="translate(0,0)"/>
<path d="" fill="#FB8E45" transform="translate(0,0)"/>
<path d="" fill="#FE9245" transform="translate(0,0)"/>
<path d="" fill="#F88C41" transform="translate(0,0)"/>
<path d="" fill="#F7904A" transform="translate(0,0)"/>
<path d="" fill="#FF9247" transform="translate(0,0)"/>
<path d="" fill="#F68C44" transform="translate(0,0)"/>
<path d="" fill="#FB8F43" transform="translate(0,0)"/>
<path d="" fill="#FE9349" transform="translate(0,0)"/>
<path d="" fill="#FB8D44" transform="translate(0,0)"/>
<path d="" fill="#FE9348" transform="translate(0,0)"/>
<path d="" fill="#FD8F46" transform="translate(0,0)"/>
<path d="" fill="#FF9148" transform="translate(0,0)"/>
<path d="" fill="#FD8E43" transform="translate(0,0)"/>
<path d="" fill="#FD9147" transform="translate(0,0)"/>
<path d="" fill="#FD8E4B" transform="translate(0,0)"/>
<path d="" fill="#FC914A" transform="translate(0,0)"/>
<path d="" fill="#FE934A" transform="translate(0,0)"/>
<path d="" fill="#FC9147" transform="translate(0,0)"/>
<path d="" fill="#FF9349" transform="translate(0,0)"/>
<path d="" fill="#FD8D44" transform="translate(0,0)"/>
<path d="" fill="#FD9047" transform="translate(0,0)"/>
<path d="" fill="#FE9148" transform="translate(0,0)"/>
<path d="" fill="#FF9349" transform="translate(0,0)"/>
<path d="" fill="#FC934C" transform="translate(0,0)"/>
<path d="" fill="#FB9046" transform="translate(0,0)"/>
<path d="" fill="#FC9149" transform="translate(0,0)"/>
<path d="" fill="#FE954F" transform="translate(0,0)"/>
<path d="" fill="#FF9347" transform="translate(0,0)"/>
<path d="" fill="#FF9248" transform="translate(0,0)"/>
<path d="" fill="#FF9247" transform="translate(0,0)"/>
<path d="" fill="#FE914A" transform="translate(0,0)"/>
<path d="" fill="#FF9148" transform="translate(0,0)"/>
<path d="" fill="#FF9247" transform="translate(0,0)"/>
<path d="" fill="#FC9045" transform="translate(0,0)"/>
<path d="" fill="#FF9248" transform="translate(0,0)"/>
<path d="" fill="#FF9247" transform="translate(0,0)"/>
<path d="" fill="#FF964A" transform="translate(0,0)"/>
<path d="" fill="#FE9345" transform="translate(0,0)"/>
<path d="" fill="#FE9247" transform="translate(0,0)"/>
<path d="" fill="#FE9344" transform="translate(0,0)"/>
<path d="" fill="#FC8F45" transform="translate(0,0)"/>
<path d="" fill="#FF9249" transform="translate(0,0)"/>
<path d="" fill="#FE9349" transform="translate(0,0)"/>
<path d="" fill="#FF964D" transform="translate(0,0)"/>
<path d="" fill="#FF9346" transform="translate(0,0)"/>
<path d="" fill="#FF944A" transform="translate(0,0)"/>
<path d="" fill="#FF954F" transform="translate(0,0)"/>
<path d="" fill="#FE9248" transform="translate(0,0)"/>
<path d="" fill="#FF9349" transform="translate(0,0)"/>
<path d="" fill="#FF9448" transform="translate(0,0)"/>
</svg>
